<svg xmlns="http://www.w3.org/2000/svg" id="Layer_1" viewBox="0 0 937 570.5"><defs><style>      .st0 {        fill: #fff;      }    </style></defs><path class="st0" d="M802.5,297.2c-6.5-.5-12.1-4.8-10.4-11.9s15.5-7.7,22.2-9.5c.6-6-3.7-7.5-8.9-7.1s-3.9.9-4.9,2.5-.5,1.7-1,2.5h-6.5c.4-10,13.2-11.9,20.7-9.2,3.4,1.2,7.1,4.8,7.1,8.6v23.4h-5.9v-4.8l-2.5,2.4c-2.1,1.6-5.8,2.8-8.4,3.1s-1,0-1.4,0ZM814.3,280.8c-3.8,1-10,.9-13.4,2.7s-3.4,7.2,1.2,8.2c6.9,1.5,13.3-3.6,12.2-10.9Z"></path><path class="st0" d="M886.2,297.2c-.4,0-1,0-1.4,0-11-.6-16.5-8.5-15.7-19.2,1.4-19.5,30.7-19.7,32.3,0s-4.6,18.3-15.2,19.1ZM883.5,268.9c-11.3,1.5-10.1,25.9,4.1,22.4,10.3-2.5,9.5-24.3-4.1-22.4Z"></path><path class="st0" d="M717.8,297.2c-.4,0-1,0-1.4,0-11.1-.6-16.6-8.7-15.7-19.4,1.6-19.2,30.8-19.5,32.3.5.8,10.2-4.7,18.1-15.2,18.9ZM715.1,268.9c-11.4,1.5-10.1,26,4.1,22.4,10.3-2.6,9.5-24.3-4.1-22.4Z"></path><path class="st0" d="M646,297.2c-1.5-.1-4.2-.7-5.6-1.2-4.4-1.5-7.6-5-7.5-9.8h6.9c0,5.6,7.3,6.6,11.5,5.2s4.7-5.5.7-7.2c-5.7-2.4-16-.8-18.1-8.6-4.1-15.3,26.5-16.8,26.5-2.1h-6.7c-.1-4.7-5.8-5.8-9.5-4.9s-5.8,5.8-.8,7.5c5.5,1.8,15.3,1.1,17.3,8.1s-5.6,12.3-12.7,12.8-1.5,0-2.1,0Z"></path><path class="st0" d="M680,297.2c-1.7-.2-4.7-.8-6.3-1.4-3.6-1.4-7-4.9-6.9-9s0-.3.3-.5h6.5c.4,5.8,8.4,6.9,12.6,4.9s3.2-5.2,0-6.8c-5.5-2.8-16.3-.6-18.3-8.8-3.7-15.2,26.3-16.6,26.6-2h-6.7c0-5.9-10.5-6.7-13.1-2.7s1,4.8,3.5,5.6c5.2,1.5,14.5,1.1,16.4,7.6,2.5,8.5-5.2,13-12.6,12.9l-.4.2c-.5,0-1.1,0-1.7,0Z"></path><path class="st0" d="M937,274.3v22.1c-1.8-.2-4,.2-5.8,0s-.6,0-.8-.4v-21.2c0-1.1-1.3-3.6-2.1-4.4-2.6-2.5-7.9-2-10.4.5s-2.7,4.2-2.7,5.6v19.9h-6.7v-32.3h6.2v4.5c.7-.3,1-1.2,1.5-1.7,6-5.6,17.4-5,20.1,3.7l.7,3.7Z"></path><path class="st0" d="M754.2,297.2c-20.7-.7-21.1-32.3-1.1-33.8,6.5-.5,13.3,2.2,15.6,8.7s1.1,3.5.3,3.5h-6.2c-.6-1.3-.9-2.7-1.8-3.9-2.4-3.1-7.5-3.6-10.7-1.8-6,3.4-6.4,14.5-2,19.2s13.5,2.8,14.2-4.1h6.9c-.5,6.1-4.9,10.3-10.7,11.5s-2.8.6-3.6.6h-1Z"></path><path class="st0" d="M455.7,570.5h-105v-209.2h-197.4c-10.2,0-24.7,9.8-30.7,17.8-3.2,4.3-8.9,15.5-8.9,20.8v170.5H8.2v-259.3C14.1,144.3,151.6,7,318.2.6c24.2,1.4,50.5-1.9,74.4,0,21.9,1.7,41.2,19.5,45.6,40.8,6.6,32-16.7,61.2-48.9,62.9h-234.6c-20.1,1.4-38.9,18.9-40.9,39.1-2.4,24.3,1.7,52.4,0,77.2,2.9,23,22.6,39.9,45.8,40.1h256.6c17.9.8,39.6,21.5,39.6,39.6v270.3Z"></path><path class="st0" d="M396.6,120.2c51.7-4.2,86.6,51.8,58.3,95.8-26.9,41.9-90.2,36.4-109.6-9.2-16.4-38.4,9.6-83.1,51.3-86.5Z"></path><path class="st0" d="M628.9,112.9h-7.4l-4.5-11.5h-20.7s-4.5,11.5-4.5,11.5h-7.1l17.9-45.7c1.3.2,8.1-.3,8.6.3l17.7,45.4ZM614.8,95l-8.3-21.2-8.1,21.2h16.4Z"></path><path class="st0" d="M628.9,296.4h-7.4l-4.5-11.5h-20.7s-4.5,11.5-4.5,11.5h-7.1l17.7-45.4c.2-.2.4-.2.7-.2,1.5-.2,5.9-.2,7.4,0s.5,0,.7.3l17.7,45.4ZM614.8,278.6l-8.3-21.2-8.1,21.2h16.4Z"></path><path class="st0" d="M671.9,189.7v45.4h-6.2v-4.3c-4,4.8-10.4,6.1-16.2,4-9.3-3.5-11.3-16.5-7.4-24.7,4.3-9.1,16.9-10.7,23.4-3.1v-17.4h6.4ZM655.9,207.6c-12.1.7-12.1,24.2,2.1,22.8s10.8-23.5-2.1-22.8Z"></path><polygon class="st0" points="619.8 128.5 619.8 134.7 595.6 134.7 595.6 148.1 617 148.1 617 153.9 616.6 154.2 595.6 154.2 595.6 174 588.7 174 588.7 128.5 619.8 128.5"></polygon><path class="st0" d="M794.1,159.9c0,9.9,13.9,13.3,17.4,3.8h6.5c.5.3,0,1.3-.1,1.8-2.2,7.2-10,9.4-16.8,8.9-18.5-1.5-19-32.6,1.4-33.5,8.2-.4,16.3,5.4,16.3,14.1v4.5l-.4.4h-24.4ZM812.2,154.9c-.8-12-16.8-11.4-18.1,0h18.1Z"></path><path class="st0" d="M844.5,108.1c-3.7,4.8-10.9,6.4-16.5,4.5-4.9-1.7-7.4-6.5-5.8-11.6,2.5-8,15.3-7.1,21.9-8.9.9-6.3-4.1-7.7-9.3-7.1s-5,2.2-5.1,5h-6.7c.2-10,13.1-11.8,20.6-9.3s7.2,5.3,7.2,9.9v21.9l-.4.4h-5.5l-.4-.4v-4.4ZM844.1,97.2c-3.8,1.1-11.6.9-14.5,3.5s-1.5,6,1.4,7.1,9.9-.3,12.1-4.1,1-2.1,1-2.3v-4.2Z"></path><path class="st0" d="M781.8,112.9h-5.9v-4.8c-2.3,2.3-4.1,3.9-7.3,4.7-7.4,1.9-16.3-.8-15.5-9.8.8-9.9,15.5-8.9,22.4-11,.8-6.2-4.5-7.6-9.6-7s-5.1,2.3-4.9,5h-6.9c.4-4.3,2.6-7.4,6.6-9s14.6-1.9,18.6,2.4c1,1.1,2.6,4.1,2.6,5.5v23.9ZM775.4,97.2c-3.1.6-6.3.9-9.3,1.5s-6.6,1.4-6.6,5.3c0,5.9,9.8,4.7,13.1,1.9s2.9-3.7,2.9-5v-3.7Z"></path><path class="st0" d="M707.6,174h-5.9v-4.8c-3.5,4.4-8.7,5.8-14.1,5.2-3.8-.4-8.1-3.3-8.6-7.3-1.7-12.6,13.5-11.9,21.9-13.7l.4-.3c1.9-8.5-14-9.7-14.5-2h-6.9c.5-10.1,13.9-11.9,21.4-8.9,2.9,1.2,6.4,4.8,6.4,8.1v23.7ZM701.2,158.3c-3.5,1.1-12.8,1-15.1,4.1s-1,5.2,1.4,6.4c3.7,1.8,9.9.2,12.2-3.2s1.5-3,1.5-3.5v-3.7Z"></path><path class="st0" d="M805.3,202.7l8.9,25.4,9.2-25.4h6.9l-13.1,35c-2.3,7.9-8.8,10.4-16.6,9v-5.7c4.4.8,9.1.5,10.2-4.6l-12.2-32.5-.2-1.1h6.9Z"></path><path class="st0" d="M697.1,90h-6.7c-.3-4.8-6.1-5.9-9.9-4.8s-5.3,5.5-.9,7.2,14.7,1.1,17.3,7.2.7,8.1-2.3,10.6c-6.7,5.7-25.6,4.1-25.1-7.6h6.7c.4,5.9,8.5,6.9,12.8,4.8s3-5.3-.2-6.8c-5.6-2.4-15.8-.8-18.1-8.3-4.6-15.3,26.3-17.3,26.5-2.3Z"></path><path class="st0" d="M721.6,225.1c0,6.3,11.5,7.3,14.3,3.4s0-4.9-2.7-5.8c-6-2-16.6-1-17.5-9.6-1.3-13.6,23.7-14.5,26.6-3,.1.5.6,2.2,0,2.4s-5.8,0-6.2-.2c-.5-5.3-8.7-6.2-12.2-3.6s-2.1,3.4-.9,4.9c2.2,2.7,11.7,2.8,15.5,4.7,6.4,3.3,6.1,11.9.1,15.5s-23.5,2.6-23.9-8.5h6.9Z"></path><path class="st0" d="M744.7,174h-6.7v-20.8c0-.6-.6-2.5-.9-3.1-2.1-4.6-9.1-4.4-12.2-.9s-2.4,4.5-2.4,6.2v18.7h-6.7v-32.3h6.4v4.5c3.8-5.2,12.3-7,17.7-3.3s4.7,6.1,4.7,9.4v21.8Z"></path><path class="st0" d="M671.4,174h-6.7v-21.5c0-.6-.8-2.7-1.2-3.3-2.6-3.8-9-3.2-11.7,0s-2.3,3.9-2.3,5.1v19.6h-6.7v-32.3h6.4v4.5l2.3-2.4c5.5-4.3,15.2-4,18.5,2.9s1.3,3.5,1.3,4.4v22.9Z"></path><path class="st0" d="M887.6,112.9h-6.3l-.4-.4v-21.2c0-1-1.3-3.7-2-4.4-2.7-2.6-8.2-1.9-10.7.7s-2.5,4.1-2.5,5.4v19.5l-.4.4h-6.3v-32.3h6.2v4.5c3.2-3.9,7.4-5.7,12.5-5.2s9.9,4.9,9.9,10.1v22.9Z"></path><path class="st0" d="M708.1,202.7v32.3h-6.2v-4.5c-2.5,3.1-5.6,5-9.6,5.2-6.3.4-12.2-3.9-12.2-10.6v-22.5h6.3l.4.4v20.9c0,.5.8,2.9,1.1,3.4,2.2,3.7,7.6,3.7,10.6,1s3-4.1,3-5.6v-19.7l.4-.4h6.3Z"></path><path class="st0" d="M633.4,235.1h-6.4v-19.9c0-1.3-.8-4-1.6-5.1-2.4-3.5-8.5-3-11.3-.1s-2.6,4.4-2.6,5.9v19.1h-6.7v-32.3h6.1l.4.4v4.2c3.5-4.3,8.9-5.9,14.3-4.7s7.8,5.3,7.8,9.3v23.2Z"></path><path class="st0" d="M640.8,80.5v20.8c0,.5.6,2.5.9,3.1,2,4.4,8.3,4.4,11.4,1.1s2.7-4.8,2.7-6.6v-18.4h6.4v32.3h-6.2v-4.8c-5,7.1-17.5,7.5-20.9-1.4s-1-3.3-1-4.2v-22h6.7Z"></path><path class="st0" d="M782,153h-6.9c-1.2-8.3-12.6-8.9-16-1.6s-1.6,14.1,3.9,16.9,11.4,0,12.1-5.8h6.5c.5.4,0,1.6-.1,2.2-2.8,11.2-19.2,12.7-26.4,5-4.7-5.1-5.4-14.6-2.3-20.6,6.2-12.2,27.6-10.8,29.2,3.9Z"></path><path class="st0" d="M759.7,194.4v8.3h8.8v5.7h-8.8v17.7c0,.3.8,2.1,1,2.3,1.7,2.1,5.5,1.1,7.8.9v5.7c-5.5.8-12.6,1.6-14.8-4.9s-.7-2.4-.7-2.9v-18.9h-5.2v-5.4l.4-.4h5.1v-8.3h6.4Z"></path><path class="st0" d="M838.4,264.1h8.8v5.5h-8.8v18c0,.4.7,1.8,1,2.1,1.6,2.1,5.6,1.3,7.8.8v5.7c-4.7.9-10.5,1.6-13.8-2.8s-1.7-3.4-1.7-4.5v-19.4h-5.2v-5.5h5.2v-8.2l.4-.4h5.9l.4.4v8.2Z"></path><path class="st0" d="M714,80.5h8.8v5.5h-8.8v18c0,.3.8,1.9,1.1,2.2,1.7,2,5.4,1.1,7.7.7v5.7c-3.6.6-7.4,1.2-10.8-.3-2.4-1-4.7-4.7-4.7-7.2v-19.1h-5.2v-5.5h5.1l.4-.4v-8.2h6.1l.4.4v8.2Z"></path><rect class="st0" x="588.7" y="189.7" width="6.9" height="45.4"></rect><polygon class="st0" points="797.5 67.2 797.5 112.5 797.1 112.9 790.8 112.9 790.8 67.2 797.5 67.2"></polygon><path class="st0" d="M749,79.8v6.7h-4.6c-4.1,0-7.5,5.2-7.5,8.9v17.5h-6.3l-.4-.4v-32h6.4v5.7c.9-.9,1.4-2.3,2.4-3.2,2.6-2.6,6.4-3.4,10-3.2Z"></path><path class="st0" d="M794.6,202.3v6.7h-5.1c-3,0-7,4.6-7,7.5v18.7h-6.7v-32.3h6.1l.4.4v5.4l2.3-3.1c1.2-1.3,4.6-3.1,6.4-3.1h3.7Z"></path><rect class="st0" x="626.7" y="141.6" width="6.7" height="32.3"></rect><rect class="st0" x="777.3" y="264.1" width="6.7" height="32.3"></rect><rect class="st0" x="855" y="264.1" width="6.7" height="32.3"></rect><polygon class="st0" points="813.9 80.5 813.9 112.5 813.5 112.9 807.2 112.9 807.2 80.5 813.9 80.5"></polygon><polygon class="st0" points="854.9 251.7 862 251.7 862.4 252.1 862.4 258.3 862 258.6 854.9 258.6 854.5 258.3 854.5 252.1 854.9 251.7"></polygon><polygon class="st0" points="814.3 74.8 806.5 74.8 806.5 68.5 806.9 68.1 814 68.1 814.3 68.5 814.3 74.8"></polygon><polygon class="st0" points="784.4 252 784.4 258.4 776.8 258.6 776.8 251.7 784.4 252"></polygon><rect class="st0" x="626.3" y="129.5" width="7.6" height="6.7"></rect></svg>