<svg id="Layer_1" data-name="Layer 1" xmlns="http://www.w3.org/2000/svg" viewBox="0 0 116 116"><defs><style>.cls-1{fill:#38bba1;}</style></defs><title>get-funds-fast</title><path class="cls-1" d="M56.07,52.2h3.86a1.94,1.94,0,1,1,0,3.87H52.2v3.86h3.87V63.8h3.86V59.93h0a5.8,5.8,0,0,0,0-11.6H56.07a1.93,1.93,0,1,1,0-3.86H63.8V40.6H59.93V36.73H56.07V40.6a5.8,5.8,0,1,0,0,11.6Zm0,0"/><path class="cls-1" d="M1.93,85.07h11.6a1.94,1.94,0,0,0,1.94-1.94h1.3a31.08,31.08,0,0,0,18,5.8h9.67v5.8a1.94,1.94,0,0,0-1.94,1.94v17.4A1.94,1.94,0,0,0,44.47,116H71.53a1.94,1.94,0,0,0,1.94-1.93V96.67a1.94,1.94,0,0,0-1.94-1.94H71a24.63,24.63,0,0,0,2-5.8H83.13a31.12,31.12,0,0,0,17.45-5.39,1.94,1.94,0,0,0,1.89,1.53h11.6A1.94,1.94,0,0,0,116,83.13V59.93A1.94,1.94,0,0,0,114.07,58h-11.6a1.94,1.94,0,0,0-1.94,1.93V63.8H99.07a21.63,21.63,0,0,0-14.36,5.42,7.72,7.72,0,0,0-3.51-4.38V44.47A19.35,19.35,0,0,0,67,25.82l.17-.26A14.74,14.74,0,0,0,69.6,17.4a1.93,1.93,0,0,0-1.93-1.93H48.33A1.93,1.93,0,0,0,46.4,17.4a14.74,14.74,0,0,0,2.47,8.16l.17.26A19.35,19.35,0,0,0,34.8,44.47v19.1a1.55,1.55,0,0,1-.86,1.4,5.42,5.42,0,0,0-2.59,2.77A21.63,21.63,0,0,0,18.86,63.8H15.47V59.93A1.94,1.94,0,0,0,13.53,58H1.93A1.94,1.94,0,0,0,0,59.93v23.2a1.94,1.94,0,0,0,1.93,1.94ZM104.4,61.87h7.73V81.2H104.4ZM69.6,112.13H46.4V98.6H69.6ZM48.33,94.73V77.33H61.86A15.05,15.05,0,0,0,58,87.43V89.7h3.87V87.43a11.19,11.19,0,0,1,3.3-8,1.92,1.92,0,0,0,.56-1.36V71.53a1.94,1.94,0,0,1,3.87,0V83.9a21,21,0,0,1-3,10.83ZM99.07,67.67h1.46v11.6a1.94,1.94,0,0,0-1.16.38,27.23,27.23,0,0,1-16.24,5.42H73.44c0-.39,0-.78,0-1.17l11.6-2.7V77.33h-10a1.78,1.78,0,0,1-1.59-1.93A2.08,2.08,0,0,1,74,74a1.45,1.45,0,0,1,1.06-.5h10a1.93,1.93,0,0,0,1.36-.57,17.75,17.75,0,0,1,12.64-5.23Zm-47-44.26a10.62,10.62,0,0,1-1.65-4.08H65.56a10.62,10.62,0,0,1-1.65,4.08l-1.16,1.75c-.29,0-.59,0-.88,0H54.13c-.29,0-.59,0-.88,0Zm-16.43,45a5.42,5.42,0,0,0,3-4.86V44.47A15.49,15.49,0,0,1,54.13,29h7.74A15.49,15.49,0,0,1,77.33,44.47V63.8H73.47v3.87h3.86a3.88,3.88,0,0,1,3.35,1.93H75.06a5.14,5.14,0,0,0-1.82.33,5.8,5.8,0,0,0-11.37,1.6v1.94H46.07A5.8,5.8,0,0,0,40.6,69.6H34.82a1.57,1.57,0,0,1,.84-1.17Zm-16.8-.76A17.72,17.72,0,0,1,31.5,72.9a1.94,1.94,0,0,0,1.37.57H40.6a1.93,1.93,0,0,1,0,3.86H30.93V81.2H44.47v3.87H34.8a27.26,27.26,0,0,1-16.24-5.42,1.92,1.92,0,0,0-1.16-.38H15.47V67.67Zm-15-5.8H11.6V81.2H3.87Zm0,0"/><rect class="cls-1" x="25.13" y="30.93" width="5.8" height="3.87"/><rect class="cls-1" x="85.07" y="30.93" width="5.8" height="3.87"/><path class="cls-1" d="M75.77,12.36l4.1-4.1L82.61,11l-4.1,4.11Zm0,0"/><rect class="cls-1" x="56.07" width="3.87" height="5.8"/><path class="cls-1" d="M33.39,11l2.74-2.73,4.1,4.1L37.49,15.1Zm0,0"/></svg>