<svg id="Layer_1" data-name="Layer 1" xmlns="http://www.w3.org/2000/svg" viewBox="0 0 110 110"><defs><style>.cls-1{fill:#38bba1;}</style></defs><title>Invest-in-growth</title><path class="cls-1" d="M106.08,24.36l-6.37-8.49L109.63,0h-6.75a5.62,5.62,0,0,0-4.44,2.38c-.77.88-1.08,1.17-1.77,1.17s-1-.29-1.77-1.17a5.33,5.33,0,0,0-8.88,0c-.77.88-1.08,1.17-1.77,1.17s-1-.29-1.76-1.17A5.62,5.62,0,0,0,78.05,0H71.3l9.92,15.88-6.36,8.48A19.64,19.64,0,0,0,71,36.07v1.18a19.52,19.52,0,0,0,39,0V36.07a19.68,19.68,0,0,0-3.9-11.71Zm-28-20.81c.69,0,1,.28,1.76,1.17a5.33,5.33,0,0,0,7.39,1.49,5.29,5.29,0,0,0,1.49-1.49c.77-.89,1.08-1.17,1.77-1.17s1,.28,1.77,1.17a5.33,5.33,0,0,0,7.39,1.49,5.29,5.29,0,0,0,1.49-1.49c.78-.89,1.08-1.17,1.77-1.17h.35L96.58,14.19H84.36L77.7,3.55Zm28.38,33.7a16,16,0,0,1-31.93,2.12,15,15,0,0,1,0-2.12V36.07a16.08,16.08,0,0,1,3.2-9.58l6.56-8.75H96.68l6.56,8.75a16.14,16.14,0,0,1,3.19,9.58Z" transform="translate(0.01 0.01)"/><path class="cls-1" d="M92.24,28.38A1.78,1.78,0,0,1,94,30.16h3.55a5.33,5.33,0,0,0-5.32-5.33V21.29H88.69v3.54H83.37v5.33a5.33,5.33,0,0,0,5.32,5.32h3.55A1.77,1.77,0,0,1,94,37.25V39h-5.3a1.78,1.78,0,0,1-1.77-1.78H83.37a5.32,5.32,0,0,0,5.32,5.32v3.55h3.55V42.57h5.32V37.25a5.32,5.32,0,0,0-5.32-5.32H88.69a1.77,1.77,0,0,1-1.77-1.77V28.38Z" transform="translate(0.01 0.01)"/><path class="cls-1" d="M26.61,42.57a16,16,0,1,0-16-16A16,16,0,0,0,26.61,42.57Zm0-28.38A12.42,12.42,0,1,1,14.19,26.61h0A12.43,12.43,0,0,1,26.61,14.19Z" transform="translate(0.01 0.01)"/><path class="cls-1" d="M26.61,35.48a8.87,8.87,0,1,0-8.87-8.87A8.87,8.87,0,0,0,26.61,35.48Zm0-14.19a5.32,5.32,0,1,1-5.32,5.32h0A5.32,5.32,0,0,1,26.61,21.29Z" transform="translate(0.01 0.01)"/><path class="cls-1" d="M99.34,67.41H89.73L85.15,72v23.8H81.6V74.5H72l-4.58,4.59v16.7H63.86V78.05h-9.6l-4.59,4.59V95.79H46.12V81.6h-9.6l-4.59,4.59v9.6H14.19v-.61L34.87,74.5H56.16l7.91-7.92,6.53,6.53,2.31-25.4L47.51,50,54,56.52l-3.76,3.76H29L14.19,75.11V49.17l2.72-1.65c.59.28,1.18.52,1.77.74l1.22,5H33.32l1.22-5c.59-.22,1.18-.46,1.76-.74l4.38,2.65,9.49-9.5L47.52,36.3c.28-.58.52-1.17.74-1.76l5-1.22V19.9l-5-1.22c-.22-.59-.46-1.18-.74-1.77l2.65-4.37-9.5-9.49L36.3,5.7c-.58-.28-1.17-.52-1.76-.74L33.32,0H19.9L18.68,5c-.59.22-1.18.46-1.77.74L12.54,3.05,3.05,12.54,5.7,16.91c-.28.59-.52,1.18-.75,1.77L0,19.9V110H110V95.79H99.34Zm-10.65,6L91.2,71h4.59v24.8h-7.1ZM71,80.56l2.51-2.51h4.59V95.79H71ZM53.22,84.11l2.5-2.51h4.59V95.79H53.22ZM35.48,87.65,38,85.15h4.58V95.79H35.48Zm-5-23.79H51.75l7.31-7.31-3.69-3.68L69,51.63,67.76,65.25l-3.68-3.68L54.69,71H33.4L14.19,90.16v-10ZM3.55,22.68l4.16-1,.3-.94a18.76,18.76,0,0,1,1.28-3.07l.46-.88L7.52,13.11l5.56-5.56,3.68,2.23.89-.46A19.16,19.16,0,0,1,20.7,8l1-.3,1-4.16h7.86l1,4.16,1,.3a18.66,18.66,0,0,1,3.06,1.28l.89.46,3.68-2.22,5.55,5.55-2.22,3.68.46.89a20,20,0,0,1,1.28,3.06l.3,1,4.16,1v7.86l-4.16,1-.3,1A20,20,0,0,1,44,35.61l-.46.89,2.22,3.68-5.61,5.51-3.67-2.22-.89.46a20,20,0,0,1-3.06,1.28l-1,.3-1,4.16H22.68l-1-4.16-.94-.3a20.14,20.14,0,0,1-3.07-1.29l-.88-.45-3.71,2.22L7.52,40.13l2.23-3.67-.46-.89A18.74,18.74,0,0,1,8,32.51l-.3-1-4.16-1ZM5,34.54c.22.59.46,1.18.74,1.76L3.55,39.85V34.19Zm101.47,64.8v7.09H3.55V41.18l7.09,7.09V99.34Z" transform="translate(0.01 0.01)"/></svg>