<svg id="Capa_1" data-name="Capa 1" xmlns="http://www.w3.org/2000/svg" viewBox="0 0 512 511.68"><defs><style>.cls-1{fill:#37baa0;}</style></defs><title>money-flow</title><path class="cls-1" d="M117.09,439l-8.18-57.8a15,15,0,0,0-29.8,4.21l1.83,12.95a226.3,226.3,0,0,1-36.68-64.71c-61-166.77,86.32-335,258.07-298.33A15.05,15.05,0,1,0,308.61,5.9C114.67-35.48-53.56,153.84,16,344a256.15,256.15,0,0,0,41.47,73.21l-14.54-2.79A15,15,0,1,0,37.25,444l60.81,11.68c11,3.09,20.48-6.39,19-16.64Z" transform="translate(0 -0.16)"/><path class="cls-1" d="M496.32,168.15a256.36,256.36,0,0,0-41.46-73.21l14.54,2.8a15.05,15.05,0,0,0,5.68-29.56L414.25,56.5a15.09,15.09,0,0,0-19,16.64l8.18,57.8a15,15,0,1,0,29.8-4.21l-1.84-13a226.15,226.15,0,0,1,36.68,64.7c42.72,116.81-17.36,246.65-133.94,289.44A224,224,0,0,1,210,476.82a15.05,15.05,0,0,0-6.28,29.44,254.23,254.23,0,0,0,140.78-10.08c132.46-48.63,200.36-195.34,151.83-328Z" transform="translate(0 -0.16)"/><path class="cls-1" d="M412.15,256.87c0-86.15-70-156.25-156-156.25s-156,70.1-156,156.25,70,156.25,156,156.25S412.15,343,412.15,256.87Zm-281.88,0c0-69.56,56.47-126.15,125.89-126.15s125.89,56.59,125.89,126.15S325.58,383,256.16,383,130.27,326.43,130.27,256.87Z" transform="translate(0 -0.16)"/><path class="cls-1" d="M271.21,341.39V328.83c26.07,0,44.22-20.46,44.22-43.5A43.54,43.54,0,0,0,272,241.82H240.35a13.41,13.41,0,1,1,.21-26.81h30.28a20.23,20.23,0,0,1,14.43,6.57,15,15,0,0,0,22-20.56,50.44,50.44,0,0,0-36-16.1V172.35a15.05,15.05,0,1,0-30.1,0v12.56c-26.07,0-44.22,20.47-44.22,43.5a43.54,43.54,0,0,0,43.46,43.51H272a13.41,13.41,0,0,1,0,26.82H238.72a20.45,20.45,0,0,1-11.23-3.83,15,15,0,1,0-17.18,24.71c10.31,7.16,19.9,9.21,30.8,9.21v12.56a15,15,0,1,0,30.1,0Z" transform="translate(0 -0.16)"/></svg>