<svg id="Layer_1" data-name="Layer 1" xmlns="http://www.w3.org/2000/svg" viewBox="0 0 400.02 480"><defs><style>.cls-1{fill:#36bba1;}</style></defs><title>pay-overheads</title><g id="Bill-2"><path class="cls-1" d="M442.53,16.41a8,8,0,0,0-8.93,2.79L416,42.66,398.4,19.2a8.29,8.29,0,0,0-11.67-1.13,8.62,8.62,0,0,0-1.13,1.13L368,42.66,350.4,19.2a8.29,8.29,0,0,0-11.67-1.13,8.62,8.62,0,0,0-1.13,1.13L320,42.66,302.4,19.2a8.29,8.29,0,0,0-11.67-1.13,8.62,8.62,0,0,0-1.13,1.13L272,42.66,254.4,19.2a8.29,8.29,0,0,0-11.67-1.13,8.62,8.62,0,0,0-1.13,1.13L224,42.66,206.4,19.2a8.29,8.29,0,0,0-11.67-1.13,8.62,8.62,0,0,0-1.13,1.13L176,42.66,158.4,19.2a8.29,8.29,0,0,0-11.67-1.13,8.62,8.62,0,0,0-1.13,1.13L128,42.66,110.4,19.2A8,8,0,0,0,96,24V89.71a87.84,87.84,0,0,0,0,156.58V488a8,8,0,0,0,14.4,4.8L128,469.34l17.6,23.46a8.29,8.29,0,0,0,11.67,1.13,8.62,8.62,0,0,0,1.13-1.13L176,469.34l17.6,23.46a8.29,8.29,0,0,0,11.67,1.13,8.62,8.62,0,0,0,1.13-1.13L224,469.34l17.6,23.46a8.29,8.29,0,0,0,11.67,1.13,8.62,8.62,0,0,0,1.13-1.13L272,469.34l17.6,23.46a8.29,8.29,0,0,0,11.67,1.13,8.62,8.62,0,0,0,1.13-1.13L320,469.34l17.6,23.46a8.29,8.29,0,0,0,11.67,1.13,8.62,8.62,0,0,0,1.13-1.13L368,469.34l17.6,23.46a8.29,8.29,0,0,0,11.67,1.13,8.62,8.62,0,0,0,1.13-1.13L416,469.34l17.6,23.46A8,8,0,0,0,448,488V24A8,8,0,0,0,442.53,16.41ZM64,168a72,72,0,1,1,72,72A72,72,0,0,1,64,168ZM432,464l-9.6-12.8a8.29,8.29,0,0,0-11.67-1.13,8.62,8.62,0,0,0-1.13,1.13L392,474.66,374.4,451.2a8.29,8.29,0,0,0-11.67-1.13,8.62,8.62,0,0,0-1.13,1.13L344,474.66,326.4,451.2a8.29,8.29,0,0,0-11.67-1.13,8.62,8.62,0,0,0-1.13,1.13L296,474.66,278.4,451.2a8.29,8.29,0,0,0-11.67-1.13,8.62,8.62,0,0,0-1.13,1.13L248,474.66,230.4,451.2a8.29,8.29,0,0,0-11.67-1.13,8.62,8.62,0,0,0-1.13,1.13L200,474.66,182.4,451.2a8.29,8.29,0,0,0-11.67-1.13,8.62,8.62,0,0,0-1.13,1.13L152,474.66,134.4,451.2a8.29,8.29,0,0,0-11.67-1.13,8.62,8.62,0,0,0-1.13,1.13L112,464V252.59a88,88,0,1,0,0-169.18V48l9.6,12.8a8.29,8.29,0,0,0,11.67,1.13,8.62,8.62,0,0,0,1.13-1.13L152,37.34,169.6,60.8a8.29,8.29,0,0,0,11.67,1.13,8.62,8.62,0,0,0,1.13-1.13L200,37.34,217.6,60.8a8.29,8.29,0,0,0,11.67,1.13,8.62,8.62,0,0,0,1.13-1.13L248,37.34,265.6,60.8a8.29,8.29,0,0,0,11.67,1.13,8.62,8.62,0,0,0,1.13-1.13L296,37.34,313.6,60.8a8.29,8.29,0,0,0,11.67,1.13,8.62,8.62,0,0,0,1.13-1.13L344,37.34,361.6,60.8a8.29,8.29,0,0,0,11.67,1.13,8.62,8.62,0,0,0,1.13-1.13L392,37.34,409.6,60.8a8.29,8.29,0,0,0,11.67,1.13,8.62,8.62,0,0,0,1.13-1.13L432,48Z" transform="translate(-47.98 -16)"/><path class="cls-1" d="M320,128h80v16H320Z" transform="translate(-47.98 -16)"/><path class="cls-1" d="M320,160h80v16H320Z" transform="translate(-47.98 -16)"/><path class="cls-1" d="M240,208H352v16H240Z" transform="translate(-47.98 -16)"/><path class="cls-1" d="M368,208h32v16H368Z" transform="translate(-47.98 -16)"/><path class="cls-1" d="M216,240H352v16H216Z" transform="translate(-47.98 -16)"/><path class="cls-1" d="M368,240h32v16H368Z" transform="translate(-47.98 -16)"/><path class="cls-1" d="M144,272H352v16H144Z" transform="translate(-47.98 -16)"/><path class="cls-1" d="M368,272h32v16H368Z" transform="translate(-47.98 -16)"/><path class="cls-1" d="M144,304H352v16H144Z" transform="translate(-47.98 -16)"/><path class="cls-1" d="M368,304h32v16H368Z" transform="translate(-47.98 -16)"/><path class="cls-1" d="M144,336H352v16H144Z" transform="translate(-47.98 -16)"/><path class="cls-1" d="M368,336h32v16H368Z" transform="translate(-47.98 -16)"/><path class="cls-1" d="M272,384h80v16H272Z" transform="translate(-47.98 -16)"/><path class="cls-1" d="M368,384h32v16H368Z" transform="translate(-47.98 -16)"/><path class="cls-1" d="M144,224V208a24,24,0,0,0,0-48H128a8,8,0,0,1,0-16h16a8,8,0,0,1,8,8h16a24,24,0,0,0-24-24V112H128v16a24,24,0,0,0,0,48h16a8,8,0,0,1,0,16H128a8,8,0,0,1-8-8H104a24,24,0,0,0,24,24v16Z" transform="translate(-47.98 -16)"/></g></svg>