<svg id="Layer_1" data-name="Layer 1" xmlns="http://www.w3.org/2000/svg" viewBox="0 0 104.28 104.28"><defs><style>.cls-1{fill:#39b9a0;}</style></defs><title>repay-debt</title><path class="cls-1" d="M80.87,53H91.64a5.05,5.05,0,0,0,5-5V31.44l12.44-16.92a5.25,5.25,0,0,0,1-3.1v-.3a5.27,5.27,0,0,0-9-3.76l-4.5,4.41V10.9a5.05,5.05,0,0,0-5-5H24.36a5.05,5.05,0,0,0-5.05,5v.87l-4.5-4.41a5.27,5.27,0,0,0-8.95,3.76v.3a5.3,5.3,0,0,0,1,3.11L19.31,31.45V47.91a5.05,5.05,0,0,0,5.05,5H35.13L43.27,64,32.16,74.89A18.52,18.52,0,1,0,40,81.76l7.44-7.43L45,72l-7.13,7.13a18.61,18.61,0,0,0-2.74-2.43l10.11-9.89,2.95,4a1.73,1.73,0,0,0,1.23.68A1.71,1.71,0,0,0,50.78,71L58,63.74l18,18a18.6,18.6,0,1,0,7.82-6.87L72.73,64ZM24.36,106.78A15.14,15.14,0,1,1,39.5,91.64a15.15,15.15,0,0,1-15.14,15.14ZM70.3,61.65,61.41,53H76.69ZM91.64,49.59H58v0L33.91,26H93.32V47.91a1.68,1.68,0,0,1-1.68,1.68Zm1.68-26.91H30.47L23.59,16H93.32ZM103.55,9.76a1.86,1.86,0,0,1,1.33-.54,1.9,1.9,0,0,1,1.9,1.9v.3a1.89,1.89,0,0,1-.36,1.11L96.69,25.77v-9.3ZM24.36,9.22H91.64a1.68,1.68,0,0,1,1.68,1.68v1.69H22.68V10.9a1.68,1.68,0,0,1,1.68-1.68Zm0,40.37a1.68,1.68,0,0,1-1.68-1.68V36l10,13.57Zm82.42,42.05A15.14,15.14,0,1,1,91.64,76.5a15.15,15.15,0,0,1,15.14,15.14ZM78.09,79.08,59.19,60.17a1.7,1.7,0,0,0-2.38,0l-7,7L9.59,12.54a1.88,1.88,0,0,1-.37-1.12v-.3a1.9,1.9,0,0,1,1.9-1.9,1.86,1.86,0,0,1,1.33.54L80.83,76.65a18.61,18.61,0,0,0-2.74,2.43Zm0,0" transform="translate(-5.86 -5.86)"/><rect class="cls-1" x="43.73" y="48.78" width="3.36" height="3.36"/><path class="cls-1" d="M81.55,29.41a8.44,8.44,0,0,0-3.37.71,8.41,8.41,0,1,0-3.36,16.11,8.2,8.2,0,0,0,3.36-.72,8.28,8.28,0,0,0,3.37.72,8.41,8.41,0,0,0,0-16.82Zm-1.68,8.41a5,5,0,0,1-1.69,3.73,5,5,0,0,1,0-7.47,5,5,0,0,1,1.69,3.74Zm-10.1,0a5.06,5.06,0,0,1,5-5h0a8.26,8.26,0,0,0,0,10.09h0a5.05,5.05,0,0,1-5-5Zm11.78,5h0a8.26,8.26,0,0,0,0-10.09h0a5,5,0,0,1,0,10.09Zm0,0" transform="translate(-5.86 -5.86)"/><path class="cls-1" d="M24.36,79.87A11.77,11.77,0,1,0,36.13,91.64,11.78,11.78,0,0,0,24.36,79.87Zm0,20.18a8.41,8.41,0,1,1,8.41-8.41,8.42,8.42,0,0,1-8.41,8.41Zm0,0" transform="translate(-5.86 -5.86)"/><path class="cls-1" d="M91.64,103.41A11.77,11.77,0,1,0,79.87,91.64a11.78,11.78,0,0,0,11.77,11.77Zm0-20.18a8.41,8.41,0,1,1-8.41,8.41,8.42,8.42,0,0,1,8.41-8.41Zm0,0" transform="translate(-5.86 -5.86)"/></svg>