<svg id="Layer_1" data-name="Layer 1" xmlns="http://www.w3.org/2000/svg" viewBox="0 0 97.77 97.77"><defs><style>.cls-1{fill:#fff;}</style></defs><title>calculator</title><path class="cls-1" d="M43.72,32.91H35.29V24.48a1.69,1.69,0,0,0-3.38,0v8.43H23.48a1.69,1.69,0,0,0,0,3.38h8.43v8.43a1.69,1.69,0,0,0,3.38,0V36.29h8.43a1.69,1.69,0,0,0,0-3.38Zm0,0" transform="translate(-8.31 -9.31)"/><path class="cls-1" d="M90.91,32.91H70.69a1.69,1.69,0,0,0,0,3.38H90.91a1.69,1.69,0,0,0,0-3.38Zm0,0" transform="translate(-8.31 -9.31)"/><path class="cls-1" d="M58.89,9.31H8.31v97.77h97.77V9.31Zm-47.2,3.38H55.51V56.51H11.69Zm0,91V59.89H55.51v43.83Zm91,0H58.89V59.89h43.83ZM58.89,56.51V12.69h43.83V56.51Zm0,0" transform="translate(-8.31 -9.31)"/><path class="cls-1" d="M70.69,88.55H90.91a1.69,1.69,0,0,0,0-3.38H70.69a1.69,1.69,0,0,0,0,3.38Zm0,0" transform="translate(-8.31 -9.31)"/><path class="cls-1" d="M70.69,78.43H90.91a1.69,1.69,0,1,0,0-3.37H70.69a1.69,1.69,0,1,0,0,3.37Zm0,0" transform="translate(-8.31 -9.31)"/><path class="cls-1" d="M43.22,72.18a1.7,1.7,0,0,0-2.38,0L33.6,79.42l-7.24-7.24a1.7,1.7,0,0,0-2.38,0,1.68,1.68,0,0,0,0,2.38l7.23,7.24L24,89a1.68,1.68,0,0,0,1.19,2.87,1.66,1.66,0,0,0,1.19-.49l7.24-7.23,7.24,7.23A1.68,1.68,0,0,0,43.22,89L36,81.8l7.23-7.24a1.68,1.68,0,0,0,0-2.38Zm0,0" transform="translate(-8.31 -9.31)"/></svg>