<svg id="Capa_1" data-name="Capa 1" xmlns="http://www.w3.org/2000/svg" viewBox="0 0 178.57 178.58"><defs><style>.cls-1{fill:#38bba1;}</style></defs><title>expert-will-help</title><path class="cls-1" d="M2.57,120.39a2.48,2.48,0,0,0,2.23,1.4,2.1,2.1,0,0,0,1.4-.28l67-41.6h31.54L96.36,104.2a2.66,2.66,0,0,0,.56,2.79,3.43,3.43,0,0,0,2.23,1.12h.28l10.89-1.68a2.86,2.86,0,0,0,2-1.11l16.47-25.13h6.7l-2.51,8.38h-8.1a2.79,2.79,0,1,0,0,5.58H131l-.55,2.51H122a2.8,2.8,0,0,0,0,5.59h6.7L127.9,105h-8.65a2.79,2.79,0,1,0,0,5.58h7l-.84,2.79h-53a3,3,0,0,0-1.95.84L13.45,164.77a3,3,0,0,0-.27,3.91,3,3,0,0,0,2,.84,3,3,0,0,0,1.95-.84l26.24-23.45a71.74,71.74,0,0,0,48,18.43,72.79,72.79,0,0,0,72.57-72.58,70.75,70.75,0,0,0-10-36.57l25.41-17a2.82,2.82,0,0,0-3.07-4.74L134.32,60.65l-.83.84L107.8,100.57l-5,.84L115.9,64a2.82,2.82,0,1,0-5.3-2l-3.91,12.28H83V68.47l38-28.19a2.79,2.79,0,1,0-3.35-4.47l-39.08,29a2.55,2.55,0,0,0-1.11,2.23v7.26h-5a12.33,12.33,0,0,0-1.39.28L3.4,116.48A2.8,2.8,0,0,0,2.57,120.39ZM83,119h36.29v5.59H83Zm55-53.87,11.45-7.54a67,67,0,0,1-101.61,84.3L73.47,119h3.91v8.38a2.63,2.63,0,0,0,2.79,2.79H122a2.63,2.63,0,0,0,2.79-2.79V119h2.79a3.36,3.36,0,0,0,2.8-1.95L141.58,78a2.83,2.83,0,0,0-.56-2.51,2.53,2.53,0,0,0-2.23-1.12h-6.7Z" transform="translate(-2.01 -1.82)"/><path class="cls-1" d="M133.49,28.55a2.52,2.52,0,0,0,2.23,1.12,3.9,3.9,0,0,0,1.67-.56l31-22.33a3,3,0,0,0,.56-3.91A3,3,0,0,0,165,2.31L134,24.64A3,3,0,0,0,133.49,28.55Z" transform="translate(-2.01 -1.82)"/><path class="cls-1" d="M53.37,35.25a2.14,2.14,0,0,0,1.4-.56A68.71,68.71,0,0,1,91.34,24.08a67.22,67.22,0,0,1,34.89,9.77,2.82,2.82,0,1,0,3.07-4.74,72.84,72.84,0,0,0-38-10.61A70.65,70.65,0,0,0,52,30.23a2.73,2.73,0,0,0-.84,3.9A3.43,3.43,0,0,0,53.37,35.25Z" transform="translate(-2.01 -1.82)"/><path class="cls-1" d="M43,40.55a2.7,2.7,0,0,0-3.9,0A72.59,72.59,0,0,0,18.76,91.08c0,2.79.28,5.86.56,8.65a3,3,0,0,0,2.79,2.52h.28a3.28,3.28,0,0,0,2.51-3.08,78.53,78.53,0,0,1-.56-8.09A67.59,67.59,0,0,1,43,44.46,2.7,2.7,0,0,0,43,40.55Z" transform="translate(-2.01 -1.82)"/><path class="cls-1" d="M2.85,179.57a2.51,2.51,0,0,0,1.95.84,2.51,2.51,0,0,0,2-.84l2.8-2.79a2.76,2.76,0,1,0-3.91-3.91l-2.79,2.79A2.7,2.7,0,0,0,2.85,179.57Z" transform="translate(-2.01 -1.82)"/></svg>