<svg id="Layer_1" data-name="Layer 1" xmlns="http://www.w3.org/2000/svg" viewBox="0 0 92.28 112.72"><defs><style>.cls-1{fill:#38bba1;}</style></defs><title>get-started</title><path class="cls-1" d="M0,0V112.72H92.25V0Zm85.7,106.12H6.61V6.6H26.4V22.09H65.88V6.6H85.67ZM59.27,6.6v8.88H33V6.6Z" transform="translate(0.03)"/><rect class="cls-1" x="32.7" y="34.27" width="40.47" height="6.6"/><rect class="cls-1" x="19.16" y="34.27" width="6.94" height="6.6"/><rect class="cls-1" x="32.7" y="48.36" width="40.47" height="6.6"/><rect class="cls-1" x="19.16" y="48.36" width="6.94" height="6.6"/><rect class="cls-1" x="19.16" y="62.45" width="6.94" height="6.6"/><rect class="cls-1" x="32.7" y="62.45" width="40.47" height="6.6"/><rect class="cls-1" x="19.16" y="83.59" width="17.61" height="6.6"/><path class="cls-1" d="M55.53,86.92l-4.71-4.71-4.67,4.67,9.38,9.38L69.61,82.18,65,77.51Z" transform="translate(0.03)"/></svg>