<svg xmlns="http://www.w3.org/2000/svg" width="218" height="46" viewBox="0 0 218 46" fill="none"><path d="M102.058 1.36804H86.2907V7.4092H95.2031C97.09 5.02179 99.451 2.94189 102.058 1.36804ZM93.7951 23.2349C93.7951 35.293 103.545 45.1017 115.531 45.1017C127.517 45.1017 137.267 35.293 137.267 23.2349C137.267 18.8571 135.981 14.632 133.546 11.0145H125.517C129.122 14 131.262 18.5351 131.262 23.2349C131.262 31.9613 124.205 39.0605 115.531 39.0605C106.857 39.0605 99.8 31.9613 99.8 23.2349C99.8 14.5085 106.52 7.8063 114.811 7.42615V7.4092H144.266V1.36804H115.468C103.516 1.40194 93.7951 11.2107 93.7951 23.2349ZM150.824 7.38015H163.306V44.5109H169.515V7.37772H182.351V1.36804H150.824V7.37772V7.38015ZM195.225 38.5012V25.8257H214.804V19.816H195.225V7.37772H217.17V1.36804H189.075V44.5085H218V38.4988H195.225V38.5012ZM31.8804 1.36804H23.8369L6.91953 19.339L6.09159 20.5278L6.26969 18.385V1.36804H0V44.5085H6.26969L6.20952 27.2518L9.58144 23.9782L24.8429 44.5085H32.7107L14.1375 20.0533L31.8804 1.36804ZM73.0919 31.7554L41.8686 0H41.6327V44.5109H47.8422L47.7291 14.6416L78.9548 46H79.1329V1.36804H72.9812L73.0943 31.7554H73.0919Z" fill="#00DFAA"></path></svg>